PathFileType	4	(X/Y/Z)	C:\Users\WrightLab\Desktop\Jo\P5V111.trc
DataRate	CameraRate	NumFrames	NumMarkers	Units	OrigDataRate	OrigDataStartFrame	OrigNumFrames
100.00	100.00	      15	19	mm	100.00	584	      1166
Frame#	Time	Headset_Front			Headset_Back			Headset_Left			Headset_Right			Left_Shoulder			Right_Shoulder			Sternum			C7			Left Elbow			Right Elbow			Left Wrist			Right Wrist			Left ASIS			Right ASIS			S2			Left Knee			Right Knee			Left Ankle			Right Ankle			
		X1	Y1	Z1	X2	Y2	Z2	X3	Y3	Z3	X4	Y4	Z4	X5	Y5	Z5	X6	Y6	Z6	X7	Y7	Z7	X8	Y8	Z8	X9	Y9	Z9	X10	Y10	Z10	X11	Y11	Z11	X12	Y12	Z12	X13	Y13	Z13	X14	Y14	Z14	X15	Y15	Z15	X16	Y16	Z16	X17	Y17	Z17	X18	Y18	Z18	X19	Y19	Z19	

584	5.830	-352.03790	1637.71680	306.47021	-213.33438	1517.09631	150.92607							-493.21240	1500.36609	334.31421	-427.60971	1552.48474	566.03699	-284.21042	1329.06934	437.38217				-606.08911	1246.00610	305.56976	-136.15474	1257.32312	791.55939	-443.67188	1211.45837	166.91331	28.48924	1125.35242	664.93750	-373.11298	940.78192	362.73840	-192.28111	965.84137	578.75763	-518.61493	1003.15393	586.11560	-410.51959	503.74573	365.52649	-106.61090	545.96228	605.53003	-529.53442	101.28572	507.92667	-104.30405	141.61342	712.95111	
585	5.840	-349.54071	1637.80396	306.15311	-202.55936	1489.78979	274.99277							-489.48062	1499.77197	334.67355	-422.98981	1552.16199	566.08716	-279.74258	1328.79175	436.37231				-602.75165	1246.20642	305.59399	-130.51299	1257.48743	791.18750	-441.05447	1211.47949	165.81929	33.43618	1126.21387	664.03125	-370.24832	940.08350	362.96487	-188.11504	964.85309	578.06323	-514.62030	1003.11945	587.98224	-408.39230	503.10623	366.62732	-101.80350	545.79230	604.37268	-529.14606	101.28250	508.37946	-95.62704	141.45514	711.01501	
586	5.850	-346.02463	1637.55994	305.46194	-199.79843	1488.96057	273.42374							-485.81644	1498.89246	335.12967	-418.03815	1552.01294	566.03003	-275.60870	1328.02429	435.98810				-599.16431	1246.23328	305.34976	-124.64444	1257.04224	789.79773	-438.21643	1211.69177	164.64638	38.16618	1124.75330	660.62848	-367.20300	939.48889	363.01443	-184.11555	964.33893	577.00592	-509.60739	1002.74805	589.00800	-406.38605	502.77887	367.67972	-96.69051	545.79950	602.96228	-528.89771	101.31784	508.55234	-86.58681	140.99290	708.84174	
587	5.860	-342.54227	1636.57031	304.93964	-196.57367	1488.40198	272.69705							-481.67819	1498.50208	335.49484	-412.97098	1551.36755	565.82745	-271.15616	1327.41528	435.90732				-595.01031	1245.71082	305.45233	-118.59356	1256.46191	788.97839	-434.71692	1211.23645	163.52466	42.91833	1125.16687	659.24982	-363.72894	939.03748	362.95181	-180.28363	963.87347	576.02478	-504.86838	1002.38690	590.68433	-404.54285	502.46680	368.55820	-92.22340	545.09180	601.91718	-528.68085	101.36983	508.72110	-78.37475	140.93771	707.18378	
588	5.870	-339.25885	1636.15076	304.67133	-193.55630	1487.52234	271.06726							-477.55786	1497.78674	335.92352	-407.37946	1551.10852	565.90887	-266.83243	1326.78931	435.27087				-590.25128	1244.87769	307.36926	-112.68034	1256.40149	787.54559	-431.70114	1211.38171	162.12854	48.18233	1123.97424	656.09174	-360.03516	937.45624	363.21469	-175.55270	962.48334	574.90143	-500.05231	1001.75757	592.00653	-402.44540	502.34634	368.70422	-87.45746	544.93628	601.30872	-528.68005	101.74181	509.10025	-70.19228	140.66965	705.48798	
589	5.880	-335.61124	1635.14673	304.23123	-190.45305	1486.73340	269.01895							-473.33658	1496.80664	336.24814	-401.82773	1550.48401	566.12915	-262.07599	1325.81409	435.14795				-585.90924	1244.52673	306.65826	-106.05488	1256.28601	786.99115	-428.36224	1211.38074	160.93402	53.69126	1124.25940	656.24335	-356.25702	936.62408	363.48465	-171.23987	961.70667	574.17017	-495.23349	1001.57556	593.49133	-399.84387	501.34628	370.17801	-81.39970	545.19330	599.77460	-528.49078	101.79399	509.47961	-62.31666	140.06482	704.42737	
590	5.890	-331.55429	1634.63135	303.85870	-187.05965	1485.82214	268.23157							-468.42776	1495.52869	336.85266	-395.76556	1550.02954	565.94440	-257.29095	1324.72314	434.35046				-581.96051	1243.73181	305.84769	-99.97564	1255.90686	786.27216	-425.17770	1210.88354	159.67476	58.68269	1123.99426	653.82477	-352.65610	935.86102	363.53735	-166.47112	960.92548	573.82520	-490.92697	1001.54199	595.39417	-398.31656	501.55353	370.84360	-76.33355	544.29291	599.01392	-528.35736	102.13914	509.89679	-54.51236	140.00404	703.01215	
591	5.900	-327.42474	1634.61572	303.53302	-183.59007	1484.94409	266.96060							-463.82816	1494.72998	337.35526	-389.80804	1549.52087	565.85626	-251.92712	1324.52893	433.44055				-577.41028	1243.27209	306.35352	-93.26859	1255.60291	784.81787	-421.37625	1210.00525	158.76999	64.32407	1122.82959	651.90234	-348.80545	934.59534	363.46881	-161.66405	959.97656	573.02081	-485.23297	1000.94580	596.31256	-395.81738	500.42310	372.18036	-71.06821	543.74182	598.20367	-528.23163	102.22945	509.89331	-47.39515	139.24013	701.59326	
592	5.910	-324.05869	1634.33240	303.62286	-180.06261	1484.02490	265.59857							-458.69458	1493.85657	337.60522	-384.51578	1549.02002	565.97327	-246.87415	1323.45581	432.85724				-572.76202	1243.02258	306.62717	-86.94528	1254.97156	783.88696	-417.99591	1209.95850	157.21802	69.68187	1122.73853	650.52155	-344.25919	933.57043	363.38037	-156.17479	959.25043	572.08185	-480.05832	1000.93011	597.88892	-393.68753	500.24860	372.25452	-67.78635	542.10107	597.17023	-528.18512	102.34769	509.88715	-40.58391	139.30975	700.90039	
593	5.920	-318.59067	1633.19287	302.80130	-176.18996	1483.52393	264.21335							-453.27872	1492.99792	338.02426	-378.04214	1548.74622	565.78510	-240.64037	1323.55554	431.11206				-568.37573	1242.94409	305.69907	-80.23693	1254.82813	782.99475	-414.36191	1209.11963	155.88387	75.76118	1122.05371	648.63574	-339.69141	932.97113	363.47913	-150.61497	958.44928	571.72693	-474.39746	1000.29224	598.91577	-390.89539	499.26514	373.60757	-61.54153	541.64050	596.56744	-528.10065	102.43989	509.84909	-33.97697	138.41986	699.38635	
594	5.930	-314.58392	1632.67822	302.66977	-172.14653	1482.88953	263.24313							-447.97098	1492.24536	338.52170	-372.34055	1548.45435	565.94293	-235.08119	1322.56433	430.71573				-562.38995	1240.91907	306.28305	-73.56922	1254.69580	782.12018	-410.75955	1208.41785	154.67111	81.12469	1121.70349	646.52295	-335.19370	931.50592	363.53894	-145.06522	957.78479	570.75806	-468.67007	1000.12671	600.01996	-388.56473	498.89597	374.82910	-56.86297	540.68823	596.01819	-527.96252	102.57352	509.81000	-27.63075	137.84129	698.32642	
595	5.940	-309.16397	1632.25818	302.15298	-168.00517	1481.67920	262.84839							-442.44019	1491.38245	338.75797	-365.89273	1547.96753	565.90527	-229.81003	1322.29236	431.63339				-557.82721	1241.05103	306.47705	-66.74319	1254.53271	780.83099	-406.60828	1207.73840	152.55910	87.08289	1120.98486	644.10547	-330.20212	930.82416	363.49722	-139.15228	957.30554	571.27527	-462.72128	999.75745	601.30518	-385.72116	499.22269	375.67322	-51.85663	539.41364	594.73108	-527.86444	102.70462	509.73532	-22.20610	137.25575	697.75989	
596	5.950				-163.74342	1480.94153	261.25687							-437.12637	1490.61169	339.53363	-360.17929	1547.58752	566.19562	-223.51208	1322.26855	431.40353				-552.23462	1240.27014	306.43851	-59.56288	1254.08997	779.79474	-403.01361	1207.40100	150.60022	92.99617	1120.29077	642.29028	-325.26343	930.39685	363.56247	-132.87462	956.76825	570.34479	-456.66467	999.72162	602.51453	-382.09970	498.42044	376.36475	-46.91438	538.50140	594.12469	-527.40454	103.23168	509.56021	-16.69466	136.12694	696.40118	
597	5.960				-159.41296	1480.46411	259.86551							-433.68774	1490.61108	340.59015	-354.56723	1547.72827	566.31903	-217.52812	1321.42285	431.08981				-546.96735	1239.69141	306.68222	-52.85799	1254.26086	778.89282	-398.49493	1206.57837	149.57137	99.19342	1119.48828	640.27789	-319.77051	929.35657	363.73267	-125.97343	956.28357	570.21716	-450.49057	1000.02594	603.58234	-378.45847	498.06308	377.33066	-41.76045	537.27472	592.86664	-527.30896	103.39989	509.51926	-12.61451	135.06644	695.62848	
598	5.970				-154.94606	1479.42578	258.83032							-428.41357	1489.86084	339.78464	-347.94742	1547.17554	566.41473	-211.36980	1320.59656	430.92618				-541.30121	1239.62610	306.37854	-45.47978	1253.81079	778.11462	-394.35809	1205.84180	147.68134	105.70155	1118.74097	638.42432	-313.92880	929.05957	364.32629	-119.89129	955.84924	570.31927	-443.94086	999.32263	604.91638	-374.87262	497.54431	378.59055	-37.71045	535.15472	592.61444	-526.98102	103.76878	509.49216	-8.38544	133.68929	694.46313	
